<svg id="Layer_1" data-name="Layer 1" xmlns="http://www.w3.org/2000/svg" viewBox="0 0 200 125"><defs><style>.cls-1{fill:#fff;}</style></defs><title>logo</title><path class="cls-1" d="M5.4,44.74H8.51v-18H5.4V23.59H12l.19,3.23h.06A10,10,0,0,1,20,23a5.47,5.47,0,0,1,4.54,1.78,7.75,7.75,0,0,1,1.43,5v15h3.12v3.12H19.71V44.74H22.2V30.24q0-2.47-.87-3.33a3.39,3.39,0,0,0-2.43-.83q-3.61,0-6.66,3.85V44.74h2.49v3.12H5.4Z"/><path class="cls-1" d="M31.85,35.85q0-5.93,2.89-9.4A9.11,9.11,0,0,1,42.05,23a8.64,8.64,0,0,1,7.06,3.24q2.66,3.24,2.65,9.09T49,44.87a8.85,8.85,0,0,1-7.34,3.61A8.51,8.51,0,0,1,34.49,45Q31.85,41.57,31.85,35.85Zm3.92-.56c0,3.27.52,5.77,1.58,7.49a5.06,5.06,0,0,0,4.58,2.59A4.92,4.92,0,0,0,46.28,43c1-1.6,1.56-4,1.56-7.31q0-9.58-6.1-9.58a5.07,5.07,0,0,0-4.45,2.2C36.27,29.76,35.77,32.09,35.77,35.29Z"/><path class="cls-1" d="M64.08,48.48a6.12,6.12,0,0,1-4.23-1.4,5.27,5.27,0,0,1-1.56-4.14V26.7H55.18V23.59h3.11V18L62,17.3v6.29h5.6V26.7H62V42.32a3.13,3.13,0,0,0,.71,2.42,2.78,2.78,0,0,0,1.9.63,6.62,6.62,0,0,0,3-.75v3.05A8.06,8.06,0,0,1,64.08,48.48Z"/><path class="cls-1" d="M83,44.74h3.11v-18H83V23.59h6.6l.18,3.23h.07c2.2-2.57,4.7-3.86,7.53-3.86s4.79,1.31,5.41,3.92h.13A10,10,0,0,1,110.65,23a5.46,5.46,0,0,1,4.54,1.78,7.75,7.75,0,0,1,1.44,5v15h3.11v3.12H110.4V44.74h2.49V30.24q0-2.47-.87-3.33a3.39,3.39,0,0,0-2.43-.83q-3.36,0-6.34,3.48V44.74h2.49v3.12H97V44.74h2.49V30.24q0-2.47-.84-3.33a3.19,3.19,0,0,0-2.33-.83c-2.37,0-4.52,1.28-6.47,3.85V44.74h2.49v3.12H83Z"/><path class="cls-1" d="M138.41,26.7H135.3V23.59h6.84V44.74h3.11v3.12h-6.53l-.19-2.68h-.12a8.61,8.61,0,0,1-6.91,3.3,6.82,6.82,0,0,1-5-1.74,6.84,6.84,0,0,1-1.74-5v-15H121.6V23.59h6.85V41.07c0,1.66.36,2.79,1.09,3.39a4.43,4.43,0,0,0,3,.91,7.22,7.22,0,0,0,5.92-2.93Z"/><path class="cls-1" d="M166.41,46.92a13.89,13.89,0,0,1-6.53,1.56,10.2,10.2,0,0,1-8-3.24C150,43.09,149,40,149,36s1-7.25,3.08-9.55a10.22,10.22,0,0,1,8-3.46,14.19,14.19,0,0,1,6.35,1.44v6h-3.3V26.64a8.75,8.75,0,0,0-3.36-.56,6.07,6.07,0,0,0-5.16,2.2c-1.12,1.48-1.68,3.81-1.68,7q0,5.1,1.8,7.53a6.13,6.13,0,0,0,5.23,2.42,13.43,13.43,0,0,0,6.47-1.68Z"/><path class="cls-1" d="M173.26,13.63h-3.12V10.52H177V26.45h.06A10.39,10.39,0,0,1,184.71,23a5.48,5.48,0,0,1,4.54,1.78,7.8,7.8,0,0,1,1.43,5v15h3.11v3.12h-9.33V44.74H187V30.24q0-2.47-.87-3.33a3.43,3.43,0,0,0-2.43-.83q-3.61,0-6.66,3.54V44.74h2.49v3.12h-9.34V44.74h3.12Z"/><path class="cls-1" d="M12.32,92.48h5.22V59.67H9.34v6H5.39v-9.7H34.16v9.7H30.21v-6H22V92.48h5.22V96.2H12.32Z"/><path class="cls-1" d="M37.67,92.48h4.47V59.67H37.67V55.94H51.09v3.73H46.61V73.84H66.74V59.67H62.27V55.94H75.69v3.73H71.22V92.48h4.47V96.2H62.27V92.48h4.47V77.57H46.61V92.48h4.48V96.2H37.67Z"/><path class="cls-1" d="M93.58,78.31,81.36,59.67H77.93V55.94H89.86v3.73H86.43l9.69,14.76,9.39-14.76h-3.73V55.94h11.93v3.73h-3.5L98.06,78.31V92.48h5.22V96.2H88.37V92.48h5.21Z"/><path class="cls-1" d="M153.9,62.43,140.85,96.58h-3.43l-13-33.48h-.15l-.74,29.38h3.57V96.2H115.2V92.48h4.25l1-32.81H116V55.94h10.44l12.9,33.33h.15l12.67-33.33H162.7v3.73h-4.25l.82,32.81h4.4V96.2H151V92.48h3.8l-.74-30.05Z"/><path class="cls-1" d="M190.28,92.48V87.26h3.95V96.2H167.39V92.48h4.48V59.67h-4.48V55.94h26.1v9h-4V59.67h-13.2V73.84h7.46V70.11h3.72V82H183.8V77.57h-7.46V92.48Z"/></svg>